<?xml version="1.0" encoding="UTF-8" standalone="no"?><svg xmlns="http://www.w3.org/2000/svg" xmlns:xlink="http://www.w3.org/1999/xlink" contentScriptType="application/ecmascript" contentStyleType="text/css" height="505px" preserveAspectRatio="none" style="width:1016px;height:505px;" version="1.1" viewBox="0 0 1016 505" width="1016px" zoomAndPan="magnify"><defs><filter height="300%" id="fhv85gql19isc" width="300%" x="-1" y="-1"><feGaussianBlur result="blurOut" stdDeviation="2.0"/><feColorMatrix in="blurOut" result="blurOut2" type="matrix" values="0 0 0 0 0 0 0 0 0 0 0 0 0 0 0 0 0 0 .4 0"/><feOffset dx="4.0" dy="4.0" in="blurOut2" result="blurOut3"/><feBlend in="SourceGraphic" in2="blurOut3" mode="normal"/></filter></defs><g><!--class FileSourceReader--><rect fill="#FEFECE" filter="url(#fhv85gql19isc)" height="79.5469" id="FileSourceReader" style="stroke: #A80036; stroke-width: 1.5;" width="499" x="6" y="14"/><ellipse cx="175.75" cy="32.9688" fill="#B4A7E5" rx="11" ry="11" style="stroke: #A80036; stroke-width: 1.0;"/><path d="M171.6719,28.7344 L171.6719,26.5781 L179.0625,26.5781 L179.0625,28.7344 L176.5938,28.7344 L176.5938,36.8125 L179.0625,36.8125 L179.0625,38.9688 L171.6719,38.9688 L171.6719,36.8125 L174.1406,36.8125 L174.1406,28.7344 L171.6719,28.7344 Z "/><text fill="#000000" font-family="sans-serif" font-size="12" font-style="italic" lengthAdjust="spacingAndGlyphs" textLength="155" x="194.25" y="30.1387">«AbstractSourceReader»</text><text fill="#000000" font-family="sans-serif" font-size="12" font-style="italic" lengthAdjust="spacingAndGlyphs" textLength="110" x="216.75" y="44.1074">FileSourceReader</text><line style="stroke: #A80036; stroke-width: 1.5;" x1="7" x2="504" y1="51.9375" y2="51.9375"/><line style="stroke: #A80036; stroke-width: 1.5;" x1="7" x2="504" y1="59.9375" y2="59.9375"/><ellipse cx="17" cy="70.9375" fill="#84BE84" rx="3" ry="3" style="stroke: #038048; stroke-width: 1.0;"/><text fill="#000000" font-family="sans-serif" font-size="11" lengthAdjust="spacingAndGlyphs" textLength="473" x="26" y="74.1479">«constructor» FileSourceReader(Parser parser, io.TextWrapper optional_file_name)</text><ellipse cx="17" cy="83.7422" fill="#84BE84" rx="3" ry="3" style="stroke: #038048; stroke-width: 1.0;"/><text fill="#000000" font-family="sans-serif" font-size="11" lengthAdjust="spacingAndGlyphs" textLength="57" x="26" y="86.9526">go() : void</text><!--class RegexParser--><rect fill="#FEFECE" filter="url(#fhv85gql19isc)" height="105.1563" id="RegexParser" style="stroke: #A80036; stroke-width: 1.5;" width="376" x="120.5" y="160"/><ellipse cx="253.75" cy="178.9688" fill="#B4A7E5" rx="11" ry="11" style="stroke: #A80036; stroke-width: 1.0;"/><path d="M249.6719,174.7344 L249.6719,172.5781 L257.0625,172.5781 L257.0625,174.7344 L254.5938,174.7344 L254.5938,182.8125 L257.0625,182.8125 L257.0625,184.9688 L249.6719,184.9688 L249.6719,182.8125 L252.1406,182.8125 L252.1406,174.7344 L249.6719,174.7344 Z "/><text fill="#000000" font-family="sans-serif" font-size="12" font-style="italic" lengthAdjust="spacingAndGlyphs" textLength="105" x="272.25" y="176.1387">«AbstractParser»</text><text fill="#000000" font-family="sans-serif" font-size="12" font-style="italic" lengthAdjust="spacingAndGlyphs" textLength="78" x="285.75" y="190.1074">RegexParser</text><line style="stroke: #A80036; stroke-width: 1.5;" x1="121.5" x2="495.5" y1="197.9375" y2="197.9375"/><line style="stroke: #A80036; stroke-width: 1.5;" x1="121.5" x2="495.5" y1="205.9375" y2="205.9375"/><ellipse cx="131.5" cy="216.9375" fill="#84BE84" rx="3" ry="3" style="stroke: #038048; stroke-width: 1.0;"/><text fill="#000000" font-family="sans-serif" font-size="11" lengthAdjust="spacingAndGlyphs" textLength="248" x="140.5" y="220.1479">«constructor» RegexParser(Drawer drawer)</text><ellipse cx="131.5" cy="229.7422" fill="#84BE84" rx="3" ry="3" style="stroke: #038048; stroke-width: 1.0;"/><text fill="#000000" font-family="sans-serif" font-size="11" lengthAdjust="spacingAndGlyphs" textLength="341" x="140.5" y="232.9526">«constructor» RegexParser(Drawer drawer, dict pen_config)</text><ellipse cx="131.5" cy="242.5469" fill="#84BE84" rx="3" ry="3" style="stroke: #038048; stroke-width: 1.0;"/><text fill="#000000" font-family="sans-serif" font-size="11" lengthAdjust="spacingAndGlyphs" textLength="350" x="140.5" y="245.7573">«constructor» RegexParser(Drawer drawer, None pen_config)</text><ellipse cx="131.5" cy="255.3516" fill="#84BE84" rx="3" ry="3" style="stroke: #038048; stroke-width: 1.0;"/><text fill="#000000" font-family="sans-serif" font-size="11" lengthAdjust="spacingAndGlyphs" textLength="166" x="140.5" y="258.562">parse(List raw_source) : void</text><!--class PegParser--><rect fill="#FEFECE" filter="url(#fhv85gql19isc)" height="105.1563" id="PegParser" style="stroke: #A80036; stroke-width: 1.5;" width="376" x="531.5" y="160"/><ellipse cx="664.75" cy="178.9688" fill="#B4A7E5" rx="11" ry="11" style="stroke: #A80036; stroke-width: 1.0;"/><path d="M660.6719,174.7344 L660.6719,172.5781 L668.0625,172.5781 L668.0625,174.7344 L665.5938,174.7344 L665.5938,182.8125 L668.0625,182.8125 L668.0625,184.9688 L660.6719,184.9688 L660.6719,182.8125 L663.1406,182.8125 L663.1406,174.7344 L660.6719,174.7344 Z "/><text fill="#000000" font-family="sans-serif" font-size="12" font-style="italic" lengthAdjust="spacingAndGlyphs" textLength="105" x="683.25" y="176.1387">«AbstractParser»</text><text fill="#000000" font-family="sans-serif" font-size="12" font-style="italic" lengthAdjust="spacingAndGlyphs" textLength="62" x="704.75" y="190.1074">PegParser</text><line style="stroke: #A80036; stroke-width: 1.5;" x1="532.5" x2="906.5" y1="197.9375" y2="197.9375"/><line style="stroke: #A80036; stroke-width: 1.5;" x1="532.5" x2="906.5" y1="205.9375" y2="205.9375"/><ellipse cx="542.5" cy="216.9375" fill="#84BE84" rx="3" ry="3" style="stroke: #038048; stroke-width: 1.0;"/><text fill="#000000" font-family="sans-serif" font-size="11" lengthAdjust="spacingAndGlyphs" textLength="235" x="551.5" y="220.1479">«constructor» PegParser(Drawer drawer)</text><ellipse cx="542.5" cy="229.7422" fill="#84BE84" rx="3" ry="3" style="stroke: #038048; stroke-width: 1.0;"/><text fill="#000000" font-family="sans-serif" font-size="11" lengthAdjust="spacingAndGlyphs" textLength="341" x="551.5" y="232.9526">«constructor» RegexParser(Drawer drawer, dict pen_config)</text><ellipse cx="542.5" cy="242.5469" fill="#84BE84" rx="3" ry="3" style="stroke: #038048; stroke-width: 1.0;"/><text fill="#000000" font-family="sans-serif" font-size="11" lengthAdjust="spacingAndGlyphs" textLength="350" x="551.5" y="245.7573">«constructor» RegexParser(Drawer drawer, None pen_config)</text><ellipse cx="542.5" cy="255.3516" fill="#84BE84" rx="3" ry="3" style="stroke: #038048; stroke-width: 1.0;"/><text fill="#000000" font-family="sans-serif" font-size="11" lengthAdjust="spacingAndGlyphs" textLength="166" x="551.5" y="258.562">parse(List raw_source) : void</text><!--class PromptSourceReader--><rect fill="#FEFECE" filter="url(#fhv85gql19isc)" height="92.3516" id="PromptSourceReader" style="stroke: #A80036; stroke-width: 1.5;" width="465" x="540" y="8"/><ellipse cx="692.75" cy="26.9688" fill="#B4A7E5" rx="11" ry="11" style="stroke: #A80036; stroke-width: 1.0;"/><path d="M688.6719,22.7344 L688.6719,20.5781 L696.0625,20.5781 L696.0625,22.7344 L693.5938,22.7344 L693.5938,30.8125 L696.0625,30.8125 L696.0625,32.9688 L688.6719,32.9688 L688.6719,30.8125 L691.1406,30.8125 L691.1406,22.7344 L688.6719,22.7344 Z "/><text fill="#000000" font-family="sans-serif" font-size="12" font-style="italic" lengthAdjust="spacingAndGlyphs" textLength="155" x="711.25" y="24.1387">«AbstractSourceReader»</text><text fill="#000000" font-family="sans-serif" font-size="12" font-style="italic" lengthAdjust="spacingAndGlyphs" textLength="133" x="722.25" y="38.1074">PromptSourceReader</text><line style="stroke: #A80036; stroke-width: 1.5;" x1="541" x2="1004" y1="45.9375" y2="45.9375"/><line style="stroke: #A80036; stroke-width: 1.5;" x1="541" x2="1004" y1="53.9375" y2="53.9375"/><ellipse cx="551" cy="64.9375" fill="#84BE84" rx="3" ry="3" style="stroke: #038048; stroke-width: 1.0;"/><text fill="#000000" font-family="sans-serif" font-size="11" lengthAdjust="spacingAndGlyphs" textLength="292" x="560" y="68.1479">«constructor» PromptSourceReader(Parser parser)</text><ellipse cx="551" cy="77.7422" fill="#84BE84" rx="3" ry="3" style="stroke: #038048; stroke-width: 1.0;"/><text fill="#000000" font-family="sans-serif" font-size="11" lengthAdjust="spacingAndGlyphs" textLength="439" x="560" y="80.9526">«constructor» PromptSourceReader(Parser parser, None optional_file_name)</text><ellipse cx="551" cy="90.5469" fill="#84BE84" rx="3" ry="3" style="stroke: #038048; stroke-width: 1.0;"/><text fill="#000000" font-family="sans-serif" font-size="11" lengthAdjust="spacingAndGlyphs" textLength="57" x="560" y="93.7573">go() : void</text><!--class TurtleDrawer--><rect fill="#FEFECE" filter="url(#fhv85gql19isc)" height="169.1797" id="TurtleDrawer" style="stroke: #A80036; stroke-width: 1.5;" width="285" x="210" y="325"/><ellipse cx="294.75" cy="343.9688" fill="#B4A7E5" rx="11" ry="11" style="stroke: #A80036; stroke-width: 1.0;"/><path d="M290.6719,339.7344 L290.6719,337.5781 L298.0625,337.5781 L298.0625,339.7344 L295.5938,339.7344 L295.5938,347.8125 L298.0625,347.8125 L298.0625,349.9688 L290.6719,349.9688 L290.6719,347.8125 L293.1406,347.8125 L293.1406,339.7344 L290.6719,339.7344 Z "/><text fill="#000000" font-family="sans-serif" font-size="12" font-style="italic" lengthAdjust="spacingAndGlyphs" textLength="111" x="313.25" y="341.1387">«AbstractDrawer»</text><text fill="#000000" font-family="sans-serif" font-size="12" font-style="italic" lengthAdjust="spacingAndGlyphs" textLength="81" x="328.25" y="355.1074">TurtleDrawer</text><line style="stroke: #A80036; stroke-width: 1.5;" x1="211" x2="494" y1="362.9375" y2="362.9375"/><line style="stroke: #A80036; stroke-width: 1.5;" x1="211" x2="494" y1="370.9375" y2="370.9375"/><ellipse cx="221" cy="381.9375" fill="#84BE84" rx="3" ry="3" style="stroke: #038048; stroke-width: 1.0;"/><text fill="#000000" font-family="sans-serif" font-size="11" lengthAdjust="spacingAndGlyphs" textLength="165" x="230" y="385.1479">«constructor» TurtleDrawer()</text><ellipse cx="221" cy="394.7422" fill="#84BE84" rx="3" ry="3" style="stroke: #038048; stroke-width: 1.0;"/><text fill="#000000" font-family="sans-serif" font-size="11" lengthAdjust="spacingAndGlyphs" textLength="250" x="230" y="397.9526">«constructor» TurtleDrawer(dict pen_config)</text><ellipse cx="221" cy="407.5469" fill="#84BE84" rx="3" ry="3" style="stroke: #038048; stroke-width: 1.0;"/><text fill="#000000" font-family="sans-serif" font-size="11" lengthAdjust="spacingAndGlyphs" textLength="259" x="230" y="410.7573">«constructor» TurtleDrawer(None pen_config)</text><ellipse cx="221" cy="420.3516" fill="#84BE84" rx="3" ry="3" style="stroke: #038048; stroke-width: 1.0;"/><text fill="#000000" font-family="sans-serif" font-size="11" lengthAdjust="spacingAndGlyphs" textLength="174" x="230" y="423.562">select_pen(int pen_num) : void</text><ellipse cx="221" cy="433.1563" fill="#84BE84" rx="3" ry="3" style="stroke: #038048; stroke-width: 1.0;"/><text fill="#000000" font-family="sans-serif" font-size="11" lengthAdjust="spacingAndGlyphs" textLength="100" x="230" y="436.3667">pen_down() : void</text><ellipse cx="221" cy="445.9609" fill="#84BE84" rx="3" ry="3" style="stroke: #038048; stroke-width: 1.0;"/><text fill="#000000" font-family="sans-serif" font-size="11" lengthAdjust="spacingAndGlyphs" textLength="84" x="230" y="449.1714">pen_up() : void</text><ellipse cx="221" cy="458.7656" fill="#84BE84" rx="3" ry="3" style="stroke: #038048; stroke-width: 1.0;"/><text fill="#000000" font-family="sans-serif" font-size="11" lengthAdjust="spacingAndGlyphs" textLength="154" x="230" y="461.9761">go_along(float along) : void</text><ellipse cx="221" cy="471.5703" fill="#84BE84" rx="3" ry="3" style="stroke: #038048; stroke-width: 1.0;"/><text fill="#000000" font-family="sans-serif" font-size="11" lengthAdjust="spacingAndGlyphs" textLength="152" x="230" y="474.7808">go_down(float down) : void</text><ellipse cx="221" cy="484.375" fill="#84BE84" rx="3" ry="3" style="stroke: #038048; stroke-width: 1.0;"/><text fill="#000000" font-family="sans-serif" font-size="11" lengthAdjust="spacingAndGlyphs" textLength="251" x="230" y="487.5854">draw_line(str direction, float distance) : void</text><!--class TkinterDrawer--><rect fill="#FEFECE" filter="url(#fhv85gql19isc)" height="169.1797" id="TkinterDrawer" style="stroke: #A80036; stroke-width: 1.5;" width="291" x="552" y="325"/><ellipse cx="639.75" cy="343.9688" fill="#B4A7E5" rx="11" ry="11" style="stroke: #A80036; stroke-width: 1.0;"/><path d="M635.6719,339.7344 L635.6719,337.5781 L643.0625,337.5781 L643.0625,339.7344 L640.5938,339.7344 L640.5938,347.8125 L643.0625,347.8125 L643.0625,349.9688 L635.6719,349.9688 L635.6719,347.8125 L638.1406,347.8125 L638.1406,339.7344 L635.6719,339.7344 Z "/><text fill="#000000" font-family="sans-serif" font-size="12" font-style="italic" lengthAdjust="spacingAndGlyphs" textLength="111" x="658.25" y="341.1387">«AbstractDrawer»</text><text fill="#000000" font-family="sans-serif" font-size="12" font-style="italic" lengthAdjust="spacingAndGlyphs" textLength="88" x="669.75" y="355.1074">TkinterDrawer</text><line style="stroke: #A80036; stroke-width: 1.5;" x1="553" x2="842" y1="362.9375" y2="362.9375"/><line style="stroke: #A80036; stroke-width: 1.5;" x1="553" x2="842" y1="370.9375" y2="370.9375"/><ellipse cx="563" cy="381.9375" fill="#84BE84" rx="3" ry="3" style="stroke: #038048; stroke-width: 1.0;"/><text fill="#000000" font-family="sans-serif" font-size="11" lengthAdjust="spacingAndGlyphs" textLength="171" x="572" y="385.1479">«constructor» TkinterDrawer()</text><ellipse cx="563" cy="394.7422" fill="#84BE84" rx="3" ry="3" style="stroke: #038048; stroke-width: 1.0;"/><text fill="#000000" font-family="sans-serif" font-size="11" lengthAdjust="spacingAndGlyphs" textLength="256" x="572" y="397.9526">«constructor» TkinterDrawer(dict pen_config)</text><ellipse cx="563" cy="407.5469" fill="#84BE84" rx="3" ry="3" style="stroke: #038048; stroke-width: 1.0;"/><text fill="#000000" font-family="sans-serif" font-size="11" lengthAdjust="spacingAndGlyphs" textLength="265" x="572" y="410.7573">«constructor» TkinterDrawer(None pen_config)</text><ellipse cx="563" cy="420.3516" fill="#84BE84" rx="3" ry="3" style="stroke: #038048; stroke-width: 1.0;"/><text fill="#000000" font-family="sans-serif" font-size="11" lengthAdjust="spacingAndGlyphs" textLength="174" x="572" y="423.562">select_pen(int pen_num) : void</text><ellipse cx="563" cy="433.1563" fill="#84BE84" rx="3" ry="3" style="stroke: #038048; stroke-width: 1.0;"/><text fill="#000000" font-family="sans-serif" font-size="11" lengthAdjust="spacingAndGlyphs" textLength="100" x="572" y="436.3667">pen_down() : void</text><ellipse cx="563" cy="445.9609" fill="#84BE84" rx="3" ry="3" style="stroke: #038048; stroke-width: 1.0;"/><text fill="#000000" font-family="sans-serif" font-size="11" lengthAdjust="spacingAndGlyphs" textLength="84" x="572" y="449.1714">pen_up() : void</text><ellipse cx="563" cy="458.7656" fill="#84BE84" rx="3" ry="3" style="stroke: #038048; stroke-width: 1.0;"/><text fill="#000000" font-family="sans-serif" font-size="11" lengthAdjust="spacingAndGlyphs" textLength="154" x="572" y="461.9761">go_along(float along) : void</text><ellipse cx="563" cy="471.5703" fill="#84BE84" rx="3" ry="3" style="stroke: #038048; stroke-width: 1.0;"/><text fill="#000000" font-family="sans-serif" font-size="11" lengthAdjust="spacingAndGlyphs" textLength="152" x="572" y="474.7808">go_down(float down) : void</text><ellipse cx="563" cy="484.375" fill="#84BE84" rx="3" ry="3" style="stroke: #038048; stroke-width: 1.0;"/><text fill="#000000" font-family="sans-serif" font-size="11" lengthAdjust="spacingAndGlyphs" textLength="251" x="572" y="487.5854">draw_line(str direction, float distance) : void</text><!--reverse link FileSourceReader to RegexParser--><path d="M273.1425,106.761 C278.858,123.8537 285.1947,142.8041 290.9067,159.8861 " fill="none" id="FileSourceReader&lt;-RegexParser" style="stroke: #A80036; stroke-width: 1.0;"/><polygon fill="#A80036" points="269.0113,94.4063,267.1206,101.3651,272.8169,105.7869,274.7076,98.8281,269.0113,94.4063" style="stroke: #A80036; stroke-width: 1.0;"/><!--reverse link FileSourceReader to PegParser--><path d="M385.4176,98.3792 C441.4301,117.5128 507.3587,140.0336 565.7839,159.9914 " fill="none" id="FileSourceReader&lt;-PegParser" style="stroke: #A80036; stroke-width: 1.0;"/><polygon fill="#A80036" points="372.8866,94.0987,377.2714,99.8235,384.2423,97.9778,379.8575,92.253,372.8866,94.0987" style="stroke: #A80036; stroke-width: 1.0;"/><!--reverse link PromptSourceReader to RegexParser--><path d="M625.3158,104.2774 C573.3999,122.0116 514.9131,141.9904 462.4526,159.9106 " fill="none" id="PromptSourceReader&lt;-RegexParser" style="stroke: #A80036; stroke-width: 1.0;"/><polygon fill="#A80036" points="637.6687,100.0577,630.6978,98.212,626.313,103.9368,633.2839,105.7825,637.6687,100.0577" style="stroke: #A80036; stroke-width: 1.0;"/><!--reverse link PromptSourceReader to PegParser--><path d="M752.8137,112.8731 C747.6721,128.2496 742.1633,144.7241 737.1356,159.7596 " fill="none" id="PromptSourceReader&lt;-PegParser" style="stroke: #A80036; stroke-width: 1.0;"/><polygon fill="#A80036" points="757.0277,100.2708,751.3314,104.6926,753.2221,111.6514,758.9184,107.2296,757.0277,100.2708" style="stroke: #A80036; stroke-width: 1.0;"/><!--reverse link RegexParser to TurtleDrawer--><path d="M323.1044,277.8879 C326.4579,292.9023 330.0708,309.0783 333.5773,324.778 " fill="none" id="RegexParser&lt;-TurtleDrawer" style="stroke: #A80036; stroke-width: 1.0;"/><polygon fill="#A80036" points="320.2334,265.0336,317.6374,271.7612,322.8491,276.745,325.4451,270.0174,320.2334,265.0336" style="stroke: #A80036; stroke-width: 1.0;"/><!--reverse link RegexParser to TkinterDrawer--><path d="M423.9343,270.959 C464.0051,291.252 509.4718,314.2775 551.6716,335.6486 " fill="none" id="RegexParser&lt;-TkinterDrawer" style="stroke: #A80036; stroke-width: 1.0;"/><polygon fill="#A80036" points="412.2339,265.0336,415.7795,271.3128,422.9394,270.4551,419.3938,264.1759,412.2339,265.0336" style="stroke: #A80036; stroke-width: 1.0;"/><!--reverse link PegParser to TurtleDrawer--><path d="M610.1007,271.2239 C574.058,290.571 533.4312,312.3789 495.2779,332.859 " fill="none" id="PegParser&lt;-TurtleDrawer" style="stroke: #A80036; stroke-width: 1.0;"/><polygon fill="#A80036" points="621.6328,265.0336,614.4545,264.3471,611.0598,270.7092,618.2382,271.3957,621.6328,265.0336" style="stroke: #A80036; stroke-width: 1.0;"/><!--reverse link PegParser to TkinterDrawer--><path d="M712.1469,278.3432 C710.4846,293.2291 708.6969,309.2369 706.9613,324.778 " fill="none" id="PegParser&lt;-TkinterDrawer" style="stroke: #A80036; stroke-width: 1.0;"/><polygon fill="#A80036" points="713.6333,265.0336,708.9921,270.5526,712.3014,276.9595,716.9427,271.4405,713.6333,265.0336" style="stroke: #A80036; stroke-width: 1.0;"/><!--
@startuml


FileSourceReader *- - RegexParser
FileSourceReader *- - PegParser
PromptSourceReader *- - RegexParser
PromptSourceReader *- - PegParser


RegexParser *- - TurtleDrawer
RegexParser *- - TkinterDrawer

PegParser *- - TurtleDrawer
PegParser *- - TkinterDrawer


interface FileSourceReader <<AbstractSourceReader>> {
    + <<constructor>> FileSourceReader(Parser parser, io.TextWrapper optional_file_name)
    + go() : void
}

interface PromptSourceReader <<AbstractSourceReader>> {
    + <<constructor>> PromptSourceReader(Parser parser)
    + <<constructor>> PromptSourceReader(Parser parser, None optional_file_name)
    + go() : void
}

interface RegexParser <<AbstractParser>> {
    + <<constructor >> RegexParser(Drawer drawer)
    + <<constructor >> RegexParser(Drawer drawer, dict pen_config)
    + <<constructor >> RegexParser(Drawer drawer, None pen_config)
    + parse(List raw_source) : void
}

interface PegParser <<AbstractParser>> {
    + <<constructor >> PegParser(Drawer drawer)
    + <<constructor >> RegexParser(Drawer drawer, dict pen_config)
    + <<constructor >> RegexParser(Drawer drawer, None pen_config)
    + parse(List raw_source) : void
}

interface TurtleDrawer <<AbstractDrawer>> {
    + <<constructor >> TurtleDrawer()
    + <<constructor >> TurtleDrawer(dict pen_config)
    + <<constructor >> TurtleDrawer(None pen_config)
    + select_pen(int pen_num) : void
    + pen_down() : void
    + pen_up() : void
    + go_along(float along) : void
    + go_down(float down) : void
    + draw_line(str direction, float distance) : void
}

interface TkinterDrawer <<AbstractDrawer>> {
    + <<constructor >> TkinterDrawer()
    + <<constructor >> TkinterDrawer(dict pen_config)
    + <<constructor >> TkinterDrawer(None pen_config)
    + select_pen(int pen_num) : void
    + pen_down() : void
    + pen_up() : void
    + go_along(float along) : void
    + go_down(float down) : void
    + draw_line(str direction, float distance) : void
}

@enduml

PlantUML version 1.2019.09(Tue Aug 27 04:19:51 NZST 2019)
(GPL source distribution)
Java Runtime: OpenJDK Runtime Environment
JVM: OpenJDK 64-Bit Server VM
Java Version: 1.8.0_222-8u222-b10-1ubuntu1~18.04.1-b10
Operating System: Linux
OS Version: 4.15.0-58-generic
Default Encoding: UTF-8
Language: en
Country: US
--></g></svg>